<svg width="254" height="64" viewBox="0 0 254 64" fill="none" xmlns="http://www.w3.org/2000/svg">
<g clip-path="url(#clip0_1_2)">
<rect width="64" height="64" rx="12" fill="#2663DF"/>
<path d="M45.4394 -3.63177L18.5631 32.8412H32.5631H45.4381L18.5606 67.6317" stroke="#FEFBFF" stroke-width="12"/>
<path d="M88.92 46.528C86.328 46.528 84.136 46.032 82.344 45.04C80.552 44.048 79.104 42.72 78 41.056C76.912 39.376 76.12 37.512 75.624 35.464C75.128 33.4 74.88 31.312 74.88 29.2C74.88 27.168 75.136 25.128 75.648 23.08C76.16 21.032 76.968 19.16 78.072 17.464C79.176 15.768 80.624 14.408 82.416 13.384C84.208 12.344 86.376 11.824 88.92 11.824C91.016 11.824 92.824 12.16 94.344 12.832C95.864 13.504 97.12 14.368 98.112 15.424C99.12 16.48 99.88 17.592 100.392 18.76L95.448 21.112C94.904 20.312 94.336 19.608 93.744 19C93.152 18.392 92.464 17.92 91.68 17.584C90.912 17.248 89.992 17.08 88.92 17.08C87.368 17.08 86.056 17.448 84.984 18.184C83.912 18.92 83.056 19.888 82.416 21.088C81.792 22.288 81.336 23.6 81.048 25.024C80.76 26.432 80.616 27.824 80.616 29.2C80.616 30.656 80.776 32.104 81.096 33.544C81.416 34.968 81.912 36.264 82.584 37.432C83.256 38.584 84.112 39.512 85.152 40.216C86.208 40.904 87.464 41.248 88.92 41.248C90.488 41.248 91.784 40.856 92.808 40.072C93.848 39.272 94.752 38.24 95.52 36.976L100.584 38.872C99.912 40.328 99.048 41.632 97.992 42.784C96.936 43.936 95.656 44.848 94.152 45.52C92.664 46.192 90.92 46.528 88.92 46.528ZM113.837 46.576C111.149 46.576 109.037 45.848 107.501 44.392C105.965 42.936 105.197 40.96 105.197 38.464C105.197 36.832 105.589 35.416 106.373 34.216C107.157 33 108.261 32.064 109.685 31.408C111.109 30.736 112.773 30.4 114.677 30.4C115.797 30.4 116.861 30.512 117.869 30.736C118.893 30.944 119.805 31.264 120.605 31.696V30.112C120.605 28.544 120.205 27.384 119.405 26.632C118.605 25.864 117.397 25.48 115.781 25.48C114.597 25.48 113.373 25.696 112.109 26.128C110.845 26.56 109.605 27.184 108.389 28L106.781 23.704C108.125 22.808 109.637 22.12 111.317 21.64C112.997 21.144 114.685 20.896 116.381 20.896C119.533 20.896 121.893 21.664 123.461 23.2C125.045 24.72 125.837 27.008 125.837 30.064V46H120.605V43.936C119.741 44.784 118.725 45.44 117.557 45.904C116.389 46.352 115.149 46.576 113.837 46.576ZM114.941 41.992C115.981 41.992 116.989 41.768 117.965 41.32C118.957 40.872 119.837 40.232 120.605 39.4V36.064C119.885 35.664 119.069 35.36 118.157 35.152C117.261 34.928 116.381 34.816 115.517 34.816C113.917 34.816 112.661 35.144 111.749 35.8C110.837 36.44 110.381 37.328 110.381 38.464C110.381 39.552 110.781 40.416 111.581 41.056C112.381 41.68 113.501 41.992 114.941 41.992ZM139.192 46.576C137.336 46.576 135.936 46.048 134.992 44.992C134.048 43.936 133.576 42.392 133.576 40.36V26.2H129.856V21.472H133.576V13.912L138.952 11.344V21.472H144.664V26.2H138.952V39.184C138.952 40.064 139.12 40.72 139.456 41.152C139.808 41.568 140.344 41.776 141.064 41.776C142.232 41.776 143.504 41.392 144.88 40.624L144.28 45.472C143.528 45.84 142.736 46.112 141.904 46.288C141.072 46.48 140.168 46.576 139.192 46.576ZM157.665 46.576C154.977 46.576 152.865 45.848 151.329 44.392C149.793 42.936 149.025 40.96 149.025 38.464C149.025 36.832 149.417 35.416 150.201 34.216C150.985 33 152.089 32.064 153.513 31.408C154.937 30.736 156.601 30.4 158.505 30.4C159.625 30.4 160.689 30.512 161.697 30.736C162.721 30.944 163.633 31.264 164.433 31.696V30.112C164.433 28.544 164.033 27.384 163.233 26.632C162.433 25.864 161.225 25.48 159.609 25.48C158.425 25.48 157.201 25.696 155.937 26.128C154.673 26.56 153.433 27.184 152.217 28L150.609 23.704C151.953 22.808 153.465 22.12 155.145 21.64C156.825 21.144 158.513 20.896 160.209 20.896C163.361 20.896 165.721 21.664 167.289 23.2C168.873 24.72 169.665 27.008 169.665 30.064V46H164.433V43.936C163.569 44.784 162.553 45.44 161.385 45.904C160.217 46.352 158.977 46.576 157.665 46.576ZM158.769 41.992C159.809 41.992 160.817 41.768 161.793 41.32C162.785 40.872 163.665 40.232 164.433 39.4V36.064C163.713 35.664 162.897 35.36 161.985 35.152C161.089 34.928 160.209 34.816 159.345 34.816C157.745 34.816 156.489 35.144 155.577 35.8C154.665 36.44 154.209 37.328 154.209 38.464C154.209 39.552 154.609 40.416 155.409 41.056C156.209 41.68 157.329 41.992 158.769 41.992ZM176.955 46V13.816L182.331 11.344V46H176.955ZM193.215 55.312L196.935 45.52L187.791 21.472H193.287L198.879 36.592C199.039 36.976 199.183 37.36 199.311 37.744C199.439 38.128 199.551 38.528 199.647 38.944C199.775 38.528 199.903 38.128 200.031 37.744C200.159 37.36 200.287 36.976 200.415 36.592L206.055 21.472H211.599L198.735 55.312H193.215ZM223.677 46.576C221.837 46.576 220.069 46.184 218.373 45.4C216.677 44.6 215.317 43.536 214.293 42.208L217.893 39.136C218.741 40.016 219.693 40.712 220.749 41.224C221.805 41.736 222.837 41.992 223.845 41.992C225.125 41.992 226.117 41.768 226.821 41.32C227.525 40.856 227.877 40.208 227.877 39.376C227.877 38.864 227.717 38.4 227.397 37.984C227.077 37.552 226.517 37.128 225.717 36.712C224.917 36.296 223.813 35.824 222.405 35.296C219.653 34.288 217.701 33.2 216.549 32.032C215.397 30.848 214.821 29.368 214.821 27.592C214.821 25.592 215.621 23.976 217.221 22.744C218.821 21.512 220.901 20.896 223.461 20.896C225.205 20.896 226.813 21.232 228.285 21.904C229.773 22.56 231.053 23.512 232.125 24.76L228.549 27.712C227.093 26.224 225.365 25.48 223.365 25.48C222.293 25.48 221.437 25.688 220.797 26.104C220.157 26.504 219.837 27.04 219.837 27.712C219.837 28.384 220.205 28.984 220.941 29.512C221.693 30.024 223.069 30.624 225.069 31.312C226.893 31.92 228.381 32.6 229.533 33.352C230.701 34.104 231.549 34.968 232.077 35.944C232.621 36.92 232.893 38.048 232.893 39.328C232.893 41.584 232.069 43.36 230.421 44.656C228.789 45.936 226.541 46.576 223.677 46.576ZM245.598 46.576C243.742 46.576 242.342 46.048 241.398 44.992C240.454 43.936 239.982 42.392 239.982 40.36V26.2H236.262V21.472H239.982V13.912L245.358 11.344V21.472H251.07V26.2H245.358V39.184C245.358 40.064 245.526 40.72 245.862 41.152C246.214 41.568 246.75 41.776 247.47 41.776C248.638 41.776 249.91 41.392 251.286 40.624L250.686 45.472C249.934 45.84 249.142 46.112 248.31 46.288C247.478 46.48 246.574 46.576 245.598 46.576Z" fill="black"/>
</g>
<defs>
<clipPath id="clip0_1_2">
<rect width="254" height="64" fill="white"/>
</clipPath>
</defs>
</svg>
